<?xml version="1.0" encoding="UTF-8"?>
<svg id="a" data-name="logo" xmlns="http://www.w3.org/2000/svg" xmlns:xlink="http://www.w3.org/1999/xlink" viewBox="0 0 2043.6 2048">
  <defs>
    <style>
      .p {
        fill: #00ac97;
      }

      .q {
        fill: #f98b00;
      }

      .r {
        fill: #8c7668;
      }

      .s {
        fill: url(#b);
      }

      .t {
        fill: #fbb761;
      }

      .u {
        fill: #ff826e;
      }
    </style>
    <radialGradient id="b" data-name="未命名的渐变 70" cx="1019.15" cy="1024" fx="1019.15" fy="1024" r="972.8" gradientTransform="translate(23.89 24) scale(.98)" gradientUnits="userSpaceOnUse">
      <stop offset="0" stop-color="#dcb097"/>
      <stop offset=".38" stop-color="#ddb094"/>
      <stop offset=".61" stop-color="#e2b18c"/>
      <stop offset=".78" stop-color="#eab37e"/>
      <stop offset=".94" stop-color="#f5b56a"/>
      <stop offset="1" stop-color="#fbb761"/>
    </radialGradient>
  </defs>
  <circle id="c" data-name="bg" class="s" cx="1019.15" cy="1024" r="950"/>
  <g id="d" data-name="zoom">
    <path id="e" data-name="frame" class="q" d="m1018.87,2048C-219.71,2014.66-382.33,283.16,825.9,18.08l21.62,113.95C-327.21,406.25-2.2,2096.71,1190.14,1916.4c710.02-129.79,985.12-1030.08,470.93-1534.85l82.14-82.12c643.01,640.29,180.8,1750.44-724.34,1748.58Z"/>
    <path id="f" data-name="line" class="q" d="m1478.04,260c-137.9-88.02-296.35-136.7-458.89-140.98l2.76-119.02c183.32,4.83,361.91,59.81,517.24,159.3l-61.11,100.7Z"/>
    <g id="g" data-name="handle">
      <path class="t" d="m1694.28,1778.48l242.78,242.95c12.81,12.81,33.56,12.81,46.37,0,18.96-20.79,62.32-48.26,33.02-79.4.01-.04-242.76-242.89-242.76-242.93l-79.35,79.38h-.06Z"/>
      <path class="q" d="m1960.22,2048c-13.21.02-25.88-5.22-35.23-14.56l-254.85-254.96,103.54-103.48,254.85,254.96c37.55,41.16-3.39,75.34-32.98,103.48-9.37,9.37-22.09,14.61-35.34,14.56Zm-241.85-269.52l230.71,230.87c6.18,6.12,16.17,6.12,22.35,0l32.92-32.93c6.13-6.19,6.13-16.17,0-22.36l-230.65-230.87s-55.25,55.38-55.32,55.29Z"/>
      <path class="q" d="m1737.37,1825.56l83.16-83.25,24.14,24.09-83.16,83.2-24.14-24.03Zm41.7,41.6l83.16-83.2,24.14,24.09-83.16,83.2-24.14-24.09Z"/>
    </g>
  </g>
  <g id="h" data-name="face">
    <path id="i" data-name="rouge2" class="u" d="m1402.96,1131.69c-3.86,287.5,420.08,287.5,416.18-.02,3.87-287.48-420.08-287.48-416.18.02Z"/>
    <path id="j" data-name="rouge1" class="u" d="m219.15,1131.65c-3.94,287.55,420.16,287.55,416.18-.02,3.89-287.42-420.1-287.42-416.18.02Z"/>
    <path id="k" data-name="brow" class="r" d="m1610.62,875.62c-50.58,337.54-418.75,170.83-674.25,189.05-235.6,87.43-500.84,13.23-508.69-186.04-49.77-611.29,1225.25-603.83,1182.94-3Z"/>
    <path id="l" data-name="eye2" d="m1332.44,824c-1.51,111.8,163.37,111.81,161.85,0,1.49-111.8-163.36-111.8-161.85,0Z"/>
    <path id="m" data-name="eye1" d="m542.84,824c-1.51,111.8,163.37,111.81,161.85,0,1.49-111.8-163.36-111.8-161.85,0Z"/>
    <path id="n" data-name="mouth" class="p" d="m1211.18,1505.89c-67.48-7.52-102.68-69.94-117.89-106.97,43.34-21.69,72.55-57.84,72.55-81-21.59-119.37-467.1-52.8-220.83,81-15.08,36.88-50.42,99.44-117.9,106.97-68.8,2.34-64.24,122.88,5.33,118.04,93.17-5.8,154.22-73.34,186.7-129.4,141.54,238.19,344.13,80.88,192.03,11.36Z"/>
    <path id="o" data-name="nose" d="m1162.1,992.85c-14.37,70.24-38.72,161.15-134.65,161.15s-130.25-87.8-149.91-156.62c-19.07-67.12,44.3-103.38,140.23-103.38,95.93-.28,158.71,29.17,144.34,98.84h0Z"/>
  </g>
</svg>