<?xml version="1.0" encoding="UTF-8"?>
<svg id="logo" xmlns="http://www.w3.org/2000/svg" viewBox="0 0 2048 2003.33">
  <path id="sloth" d="m614.03,948.94l28.22,14c12.91,6.56,27.12,9.84,41.78,9.84,51.41,0,93.19-41.78,93.19-93.19v-46.81c0-77.22-62.78-140-140-140h-140.22c-77.22,0-140,62.78-140,140v46.81c0,51.41,41.78,93.19,93.19,93.19,14.44,0,28.66-3.28,41.78-9.84l28.22-14,18.37-9.19-26.03-17.28c-9.84-6.56-15.53-17.5-15.53-29.09v-8.09c0-29.09,23.41-52.5,52.5-52.5h35c29.09,0,52.5,23.41,52.5,52.5v8.09c0,11.59-5.91,22.53-15.53,29.09l-25.81,17.28,18.37,9.19h0Zm-18.81,108.06l-28.22-14.22-28.22,14c-27.56,13.78-57.97,21-88.59,21-7.87,0-15.53-.44-23.19-1.31v1.31c0,77.22,62.78,140,140,140h140c38.72,0,70,31.28,70,70s-31.28,70-70,70h350v-140c0-51.84,28.22-97.12,70-121.19,20.56-11.81,44.41-18.81,70-18.81v-35c0-57.97,47.03-105,105-105,19.25,0,35,15.75,35,35v210c0,19.25,15.75,35,35,35s35-15.75,35-35v-218.09c0-105.44-67.37-199.06-167.56-232.53l-18.59-6.13c-17.5-5.91-27.56-24.28-22.75-42.22s22.53-28.88,40.69-25.37l43.53,8.75c194.69,38.94,334.69,209.78,334.69,408.19v2.41h0c0,270.59-219.41,490-490,490h-351.31c-269.94,0-488.69-218.75-488.69-488.69v-87.06c-22.09-31.94-35-70.66-35-112.44v-49.87c-20.34-7.22-35-26.47-35-49.44,0-29.09,23.41-52.5,52.5-52.5h6.12c39.38-82.69,123.59-140,221.38-140h140c97.78,0,182,57.31,221.38,140h6.12c29.09,0,52.5,23.41,52.5,52.5,0,22.97-14.66,42.22-35,49.44v49.87c0,3.06,0,6.13-.22,9.41,26.25-13.56,56.22-21,87.72-21h17.5c38.72,0,70,31.28,70,70s-31.28,70-70,70h-17.5c-29.09,0-52.5,23.41-52.5,52.5v17.5h123.37c-33.25,37.19-53.37,86.19-53.37,140h-70c-92.53,0-171.06-59.94-199.06-142.84-11.16,1.97-22.53,2.84-34.12,2.84-30.84,0-61.03-7.22-88.59-21h0Zm-168.22-259.22c19.33,0,35,15.67,35,35s-15.67,35-35,35-35-15.67-35-35,15.67-35,35-35Zm245,35c0-19.33,15.67-35,35-35s35,15.67,35,35-15.67,35-35,35-35-15.67-35-35Z"/>
  <path id="zoom" d="m2027.65,1883l-330.26-335.38c135.53-168.74,209.16-378.81,208.65-595.24C1906.05,427.55,1478.5,0,953.66,0S0,426.27,0,951.1s427.55,952.38,952.38,952.38c92.17,0,184.33-12.8,271.38-39.68,37.12-11.52,58.88-51.2,48.64-88.33-11.52-38.4-51.2-58.88-88.33-48.64-429.59,127.4-881.11-117.58-1008.51-547.16-22.13-74.61-33.4-152.02-33.48-229.85,0-446.75,363.54-810.29,810.29-810.29s810.29,363.54,810.29,810.29c0,204.81-76.81,400.67-216.33,550.44-25.6,28.16-25.6,71.68,1.28,98.57l376.35,382.75c14.08,14.08,32,21.76,51.2,21.76,17.92,0,35.84-6.4,49.92-20.48,29.44-26.88,30.72-71.68,2.56-99.85h0Z"/>
  <path id="line" d="m962.62,267.54c-39.59-.02-71.7,32.06-71.72,71.65-.02,39.59,32.06,71.7,71.65,71.72h.07c143.37,0,276.5,55.04,377.63,156.17,14.08,14.08,32,20.48,49.92,20.48s37.12-6.4,49.92-20.48c28.16-28.16,28.16-72.96,0-101.13-126.73-128.01-296.98-198.41-477.47-198.41h0Z"/>
</svg>