<?xml version="1.0" encoding="UTF-8"?>
<svg id="logo" xmlns="http://www.w3.org/2000/svg" viewBox="0 0 2048 2003.33">
  <path id="zoom" d="m2027.65,1883l-330.26-335.38c135.53-168.74,209.16-378.81,208.65-595.24C1906.05,427.55,1478.5,0,953.66,0S0,426.27,0,951.1s427.55,952.38,952.38,952.38c92.17,0,184.33-12.8,271.38-39.68,37.12-11.52,58.88-51.2,48.64-88.33-11.52-38.4-51.2-58.88-88.33-48.64-429.59,127.4-881.11-117.58-1008.51-547.16-22.13-74.61-33.4-152.02-33.48-229.85,0-446.75,363.54-810.29,810.29-810.29s810.29,363.54,810.29,810.29c0,204.81-76.81,400.67-216.33,550.44-25.6,28.16-25.6,71.68,1.28,98.57l376.35,382.75c14.08,14.08,32,21.76,51.2,21.76,17.92,0,35.84-6.4,49.92-20.48,29.44-26.88,30.72-71.68,2.56-99.85h0Z"/>
  <path id="line" d="m701.06,332.45c-36.45,15.46-53.46,57.54-38.01,93.98,15.46,36.45,57.54,53.46,93.98,38.01l.06-.03c131.96-56.04,276.02-57.41,408.63-3.85,18.46,7.46,37.46,6.34,53.96-.66,16.5-7,31.67-20.4,37.95-38.37,14.91-36.93-2.6-78.17-39.53-93.08-166.68-68.29-350.91-66.55-517.04,4h0Z"/>
  <g id="bear">
    <path id="face" d="m1566.25,696.42c-75.54-111.32-221.85-136.67-326.74-56.81-12.22,9.32-23.01,19.8-32.93,31.18-75.54-41.1-160.28-64.15-246.28-64.71-86.25.56-170.83,23.61-246.6,64.71-9.92-11.11-20.71-21.86-32.93-31.18-104.89-79.86-251.2-54.51-326.74,56.81-75.46,111.32-51.57,266.4,53.64,346.26,10.47,7.85,21.26,14.28,32.37,20.39-16.58,124.45,28.25,248.63,116.32,343.64,5.79,6.39,11.58,12.5,18.09,18.33h0c18.57,18.09,38.72,34.99,60.3,50.14l.32.28c6.98,4.96,14.28,9.64,21.58,14.28.24.32.56.32.79.59,6.98,4.36,14.28,8.73,21.9,13.13l1.75.87c7.3,4.09,14.6,7.85,21.82,11.62.87.32,1.51.91,2.38,1.19,6.98,3.49,14.28,6.7,21.58,10.2l3.49,1.75c6.98,2.9,13.97,5.83,21.26,8.45,1.75.59,3.17,1.19,4.92,2.06,6.98,2.62,14.04,4.92,21.03,7.26,1.98.6,3.73,1.47,5.79,2.06,6.74,2.02,13.73,4.09,20.71,6.11,2.3.59,4.68,1.47,6.74,2.06,6.67,1.71,13.65,3.17,20.63,4.92l7.93,1.78c6.67,1.43,13.33,2.58,20.39,3.77,2.86.6,5.79,1.15,8.73,1.43,6.67,1.19,13.65,1.79,20.39,2.66,3.17.28,6.43.87,9.28,1.15,7.06.59,14.28,1.15,21.34,1.75,3.17.32,6.11.59,8.97.59,10.23.56,20.71.87,31.26.87h0c10.47,0,20.63-.32,31.18-.87,3.17-.28,6.11-.59,9.28-.59,6.98-.59,14.28-.87,21.26-1.75,3.25-.28,6.43-.87,9.36-1.15,6.67-.87,13.73-1.47,20.39-2.66,2.94-.56,5.79-1.15,8.49-1.43,6.98-1.19,13.65-2.34,20.63-3.77,2.62-.59,5-1.19,7.62-1.78,6.98-1.47,13.96-2.9,20.71-4.92,1.98-.6,4.37-1.19,6.35-1.79,7.3-2.02,14.28-4.09,21.26-6.11,1.83-.59,3.57-1.15,5-1.75,7.3-2.34,14.6-4.96,21.82-7.58,1.19-.59,2.7-1.15,3.81-1.47,7.62-2.9,14.92-5.83,22.14-9.05.87-.28,1.75-.87,2.94-1.15,7.62-3.21,15.16-6.7,22.45-10.47l1.75-.87c7.54-3.81,15.16-7.89,22.45-11.98.32-.28.56-.28.87-.56,7.54-4.36,15.16-8.77,22.46-13.41h0c37.85-24.2,71.96-52.49,101.08-83.95,87.76-95.02,132.67-219.19,116.32-343.64,11.11-5.83,22.14-12.22,32.37-20.39,105.77-80.14,129.65-235.22,54.51-346.54h0Zm-1090.98,237.84c-4.28-2.34-8.41-4.96-12.22-8.17-53.95-41.1-66.17-120.96-27.37-178.09,38.8-57.13,113.94-70.22,167.89-29.12,6.43,4.64,11.98,10.2,16.9,15.75-62.05,53.04-112.51,120.64-145.2,199.63h0Zm642.69-27.69c22.77,0,41.1,27.37,41.1,61.21s-18.33,61.17-41.1,61.17-41.1-27.37-41.1-61.17c-.32-33.84,18.41-61.21,41.1-61.21h0Zm-315.95,0c22.77,0,41.1,27.37,41.1,61.21s-18.33,61.17-41.1,61.17-41.1-27.37-41.1-61.17,18.41-61.21,41.1-61.21h0Zm396.96,390.85c-19.76,102.87-122.67,180.67-238.99,181.54-116.24-.56-219.15-78.67-238.99-181.54-8.73-44.04,4.13-89.78,36.18-128.82,44.59-54.51,120.6-86.88,202.8-86.88s158.29,32.37,202.88,86.88c32.05,38.72,44.91,84.5,36.1,128.82h0Zm257.95-371.33c-4.05,2.94-8.17,5.83-12.22,8.17-32.69-78.99-83.07-146.59-144.88-199.63,5.24-5.83,10.79-11.11,16.9-15.75,53.95-41.1,129.17-28.01,167.89,29.12,38.8,57.45,26.5,136.99-27.69,178.09h0Z"/>
    <path id="mouth" d="m959.98,1415.76c69.66,0,129.73-33.24,156.55-86.56,2.3-5,.56-10.79-4.36-13.13-5-2.34-10.79-.59-13.17,4.36-22.14,44-70.77,71.96-128.22,75.18v-114.81c29.99-4.36,65.86-32.65,81.01-66.77,14.6-36.1-28.8-65.26-94.74-64.67-65.86.56-105.21,30.86-86.49,67.6,17.14,31.18,50.7,56.53,79.26,62.96v115.68c-57.44-3.21-106.08-31.18-128.3-75.18-2.3-4.96-8.41-6.7-13.09-4.36-4.92,2.34-6.66,8.45-4.36,13.13,26.26,53.32,86.25,86.57,155.91,86.57h0Z"/>
  </g>
</svg>